<svg xmlns="http://www.w3.org/2000/svg" xmlns:xlink="http://www.w3.org/1999/xlink" width="500" zoomAndPan="magnify" viewBox="0 0 375 374.999991" height="500" preserveAspectRatio="xMidYMid meet" version="1.0"><defs><g/><clipPath id="a17e4a339c"><path d="M 39 49.023438 L 248 49.023438 L 248 268.773438 L 39 268.773438 Z M 39 49.023438 " clip-rule="nonzero"/></clipPath><clipPath id="366bbafe6c"><path d="M 265 148 L 297.246094 148 L 297.246094 157 L 265 157 Z M 265 148 " clip-rule="nonzero"/></clipPath></defs><path fill="#008037" d="M 258.261719 108.722656 C 243.652344 94.148438 219.980469 94.148438 205.375 108.722656 L 196.109375 117.972656 L 186.84375 108.722656 C 172.242188 94.148438 148.5625 94.148438 133.960938 108.722656 C 123.773438 118.894531 120.714844 133.464844 124.746094 146.304688 C 124.011719 136.605469 127.519531 126.664062 135.328125 119.394531 C 143.402344 111.886719 154.933594 109.824219 165.550781 111.695312 C 176.914062 113.699219 185.050781 119.777344 193.070312 127.621094 C 193.226562 127.777344 195.796875 130.296875 195.796875 130.292969 C 203.640625 122.625 211.042969 112.882812 222.480469 110.832031 C 239.652344 107.753906 259.816406 123.574219 255.007812 141.941406 C 252.828125 150.269531 246.527344 154.113281 240.214844 159.039062 C 236.28125 162.109375 232.308594 165.128906 228.417969 168.246094 C 219.941406 175.035156 211.585938 182.285156 205 190.976562 C 201.445312 195.667969 198.390625 200.847656 196.671875 206.503906 C 195.847656 209.214844 195.335938 212.015625 195.21875 214.84375 C 195.101562 217.796875 196.148438 220.6875 196.109375 223.539062 C 196.316406 208.835938 208.863281 196.390625 219.25 187.46875 C 224.234375 183.1875 229.367188 179.121094 234.832031 175.464844 C 240.757812 171.503906 247.234375 168.445312 252.976562 164.191406 C 253.089844 164.109375 253.199219 164.023438 253.3125 163.941406 C 261.589844 157.714844 268.15625 149.113281 269.0625 138.539062 C 269.996094 127.691406 265.988281 116.433594 258.261719 108.722656 " fill-opacity="1" fill-rule="nonzero"/><path fill="#008037" d="M 43.597656 147.289062 C 43.597656 154.023438 38.125 159.484375 31.378906 159.484375 C 24.628906 159.484375 19.160156 154.023438 19.160156 147.289062 C 19.160156 140.550781 24.628906 135.09375 31.378906 135.09375 C 38.125 135.09375 43.597656 140.550781 43.597656 147.289062 " fill-opacity="1" fill-rule="nonzero"/><path fill="#008037" d="M 258.261719 108.722656 C 243.652344 94.148438 219.980469 94.148438 205.375 108.722656 L 196.109375 117.972656 L 186.84375 108.722656 C 172.242188 94.148438 148.5625 94.148438 133.960938 108.722656 C 123.773438 118.894531 120.714844 133.464844 124.746094 146.304688 C 124.011719 136.605469 127.519531 126.664062 135.328125 119.394531 C 143.402344 111.886719 154.933594 109.824219 165.550781 111.695312 C 176.914062 113.699219 185.050781 119.777344 193.070312 127.621094 C 193.226562 127.777344 195.796875 130.296875 195.796875 130.292969 C 203.640625 122.625 211.042969 112.882812 222.480469 110.832031 C 239.652344 107.753906 259.816406 123.574219 255.007812 141.941406 C 252.828125 150.269531 246.527344 154.113281 240.214844 159.039062 C 236.28125 162.109375 232.308594 165.128906 228.417969 168.246094 C 219.941406 175.035156 211.585938 182.285156 205 190.976562 C 201.445312 195.667969 198.390625 200.847656 196.671875 206.503906 C 195.847656 209.214844 195.335938 212.015625 195.21875 214.84375 C 195.101562 217.796875 196.148438 220.6875 196.109375 223.539062 C 196.316406 208.835938 208.863281 196.390625 219.25 187.46875 C 224.234375 183.1875 229.367188 179.121094 234.832031 175.464844 C 240.757812 171.503906 247.234375 168.445312 252.976562 164.191406 C 253.089844 164.109375 253.199219 164.023438 253.3125 163.941406 C 261.589844 157.714844 268.15625 149.113281 269.0625 138.539062 C 269.996094 127.691406 265.988281 116.433594 258.261719 108.722656 " fill-opacity="1" fill-rule="nonzero"/><g clip-path="url(#a17e4a339c)"><path fill="#008037" d="M 240.683594 154.8125 C 243.351562 152.785156 245.824219 150.898438 247.832031 148.695312 L 134.046875 148.695312 L 127.78125 204.976562 L 108.132812 49.03125 L 98.429688 143.277344 L 92.171875 115.523438 L 82.203125 143.457031 L 39.425781 143.457031 L 39.425781 150.960938 L 87.507812 150.960938 L 90.539062 142.464844 L 101.199219 189.765625 L 108.882812 115.144531 L 128.242188 268.785156 L 140.773438 156.203125 L 238.867188 156.203125 C 239.472656 155.734375 240.078125 155.269531 240.683594 154.8125 " fill-opacity="1" fill-rule="nonzero"/></g><g clip-path="url(#366bbafe6c)"><path fill="#008037" d="M 269.65625 148.695312 C 268.5 151.445312 267.027344 153.945312 265.375 156.203125 L 297.105469 156.203125 L 297.105469 148.695312 L 269.65625 148.695312 " fill-opacity="1" fill-rule="nonzero"/></g><g fill="#060074" fill-opacity="1"><g transform="translate(148.544277, 226.508652)"><g><path d="M 20.015625 0 L 3.078125 0 L 3.078125 -28.515625 L 20.015625 -28.515625 L 20.015625 -22.34375 L 10.78125 -22.34375 L 10.78125 -17.84375 L 19.328125 -17.84375 L 19.328125 -11.671875 L 10.78125 -11.671875 L 10.78125 -6.28125 L 20.015625 -6.28125 Z M 20.015625 0 "/></g></g></g><g fill="#060074" fill-opacity="1"><g transform="translate(170.467962, 226.508652)"><g><path d="M 19.703125 -6.78125 C 19.703125 -4.414062 18.894531 -2.628906 17.28125 -1.421875 C 15.664062 -0.210938 13.351562 0.390625 10.34375 0.390625 C 8.695312 0.390625 7.269531 0.300781 6.0625 0.125 C 4.851562 -0.0507812 3.617188 -0.375 2.359375 -0.84375 L 2.359375 -6.9375 C 3.546875 -6.425781 4.84375 -6 6.25 -5.65625 C 7.664062 -5.320312 8.925781 -5.15625 10.03125 -5.15625 C 11.675781 -5.15625 12.5 -5.53125 12.5 -6.28125 C 12.5 -6.664062 12.269531 -7.007812 11.8125 -7.3125 C 11.351562 -7.625 10.007812 -8.222656 7.78125 -9.109375 C 5.75 -9.941406 4.332031 -10.882812 3.53125 -11.9375 C 2.726562 -13 2.328125 -14.347656 2.328125 -15.984375 C 2.328125 -18.035156 3.117188 -19.632812 4.703125 -20.78125 C 6.285156 -21.925781 8.53125 -22.5 11.4375 -22.5 C 12.882812 -22.5 14.25 -22.335938 15.53125 -22.015625 C 16.8125 -21.691406 18.144531 -21.226562 19.53125 -20.625 L 17.453125 -15.703125 C 16.441406 -16.160156 15.367188 -16.546875 14.234375 -16.859375 C 13.109375 -17.179688 12.1875 -17.34375 11.46875 -17.34375 C 10.21875 -17.34375 9.59375 -17.035156 9.59375 -16.421875 C 9.59375 -16.046875 9.8125 -15.722656 10.25 -15.453125 C 10.6875 -15.191406 11.945312 -14.648438 14.03125 -13.828125 C 15.570312 -13.191406 16.722656 -12.566406 17.484375 -11.953125 C 18.242188 -11.347656 18.800781 -10.628906 19.15625 -9.796875 C 19.519531 -8.972656 19.703125 -7.96875 19.703125 -6.78125 Z M 19.703125 -6.78125 "/></g></g></g><g fill="#060074" fill-opacity="1"><g transform="translate(191.767485, 226.508652)"><g><path d="M 18.375 0 L 17.421875 -2.75 L 16.96875 -2.75 C 16.332031 -1.738281 15.445312 -0.960938 14.3125 -0.421875 C 13.175781 0.117188 11.835938 0.390625 10.296875 0.390625 C 7.867188 0.390625 5.976562 -0.3125 4.625 -1.71875 C 3.269531 -3.132812 2.59375 -5.128906 2.59375 -7.703125 L 2.59375 -22.109375 L 10.21875 -22.109375 L 10.21875 -10.03125 C 10.21875 -8.582031 10.421875 -7.488281 10.828125 -6.75 C 11.242188 -6.007812 11.921875 -5.640625 12.859375 -5.640625 C 14.171875 -5.640625 15.101562 -6.15625 15.65625 -7.1875 C 16.21875 -8.21875 16.5 -9.960938 16.5 -12.421875 L 16.5 -22.109375 L 24.125 -22.109375 L 24.125 0 Z M 18.375 0 "/></g></g></g><g fill="#060074" fill-opacity="1"><g transform="translate(218.528424, 226.508652)"><g><path d="M 19.703125 -6.78125 C 19.703125 -4.414062 18.894531 -2.628906 17.28125 -1.421875 C 15.664062 -0.210938 13.351562 0.390625 10.34375 0.390625 C 8.695312 0.390625 7.269531 0.300781 6.0625 0.125 C 4.851562 -0.0507812 3.617188 -0.375 2.359375 -0.84375 L 2.359375 -6.9375 C 3.546875 -6.425781 4.84375 -6 6.25 -5.65625 C 7.664062 -5.320312 8.925781 -5.15625 10.03125 -5.15625 C 11.675781 -5.15625 12.5 -5.53125 12.5 -6.28125 C 12.5 -6.664062 12.269531 -7.007812 11.8125 -7.3125 C 11.351562 -7.625 10.007812 -8.222656 7.78125 -9.109375 C 5.75 -9.941406 4.332031 -10.882812 3.53125 -11.9375 C 2.726562 -13 2.328125 -14.347656 2.328125 -15.984375 C 2.328125 -18.035156 3.117188 -19.632812 4.703125 -20.78125 C 6.285156 -21.925781 8.53125 -22.5 11.4375 -22.5 C 12.882812 -22.5 14.25 -22.335938 15.53125 -22.015625 C 16.8125 -21.691406 18.144531 -21.226562 19.53125 -20.625 L 17.453125 -15.703125 C 16.441406 -16.160156 15.367188 -16.546875 14.234375 -16.859375 C 13.109375 -17.179688 12.1875 -17.34375 11.46875 -17.34375 C 10.21875 -17.34375 9.59375 -17.035156 9.59375 -16.421875 C 9.59375 -16.046875 9.8125 -15.722656 10.25 -15.453125 C 10.6875 -15.191406 11.945312 -14.648438 14.03125 -13.828125 C 15.570312 -13.191406 16.722656 -12.566406 17.484375 -11.953125 C 18.242188 -11.347656 18.800781 -10.628906 19.15625 -9.796875 C 19.519531 -8.972656 19.703125 -7.96875 19.703125 -6.78125 Z M 19.703125 -6.78125 "/></g></g></g><g fill="#060074" fill-opacity="1"><g transform="translate(148.544277, 267.463581)"><g><path d="M 10.78125 -10.375 L 10.78125 0 L 3.078125 0 L 3.078125 -28.515625 L 12.421875 -28.515625 C 20.171875 -28.515625 24.046875 -25.707031 24.046875 -20.09375 C 24.046875 -16.789062 22.4375 -14.234375 19.21875 -12.421875 L 27.53125 0 L 18.78125 0 L 12.734375 -10.375 Z M 10.78125 -16.171875 L 12.234375 -16.171875 C 14.921875 -16.171875 16.265625 -17.363281 16.265625 -19.75 C 16.265625 -21.707031 14.945312 -22.6875 12.3125 -22.6875 L 10.78125 -22.6875 Z M 10.78125 -16.171875 "/></g></g></g><g fill="#060074" fill-opacity="1"><g transform="translate(175.578287, 267.463581)"><g><path d="M 13.3125 0.390625 C 9.625 0.390625 6.757812 -0.585938 4.71875 -2.546875 C 2.6875 -4.503906 1.671875 -7.289062 1.671875 -10.90625 C 1.671875 -14.632812 2.613281 -17.5 4.5 -19.5 C 6.382812 -21.5 9.078125 -22.5 12.578125 -22.5 C 15.910156 -22.5 18.484375 -21.628906 20.296875 -19.890625 C 22.109375 -18.148438 23.015625 -15.648438 23.015625 -12.390625 L 23.015625 -9 L 9.390625 -9 C 9.441406 -7.757812 9.890625 -6.785156 10.734375 -6.078125 C 11.585938 -5.378906 12.75 -5.03125 14.21875 -5.03125 C 15.5625 -5.03125 16.796875 -5.15625 17.921875 -5.40625 C 19.046875 -5.664062 20.265625 -6.097656 21.578125 -6.703125 L 21.578125 -1.234375 C 20.378906 -0.617188 19.140625 -0.195312 17.859375 0.03125 C 16.585938 0.269531 15.070312 0.390625 13.3125 0.390625 Z M 12.859375 -17.296875 C 11.960938 -17.296875 11.210938 -17.015625 10.609375 -16.453125 C 10.003906 -15.890625 9.648438 -15.003906 9.546875 -13.796875 L 16.09375 -13.796875 C 16.070312 -14.859375 15.769531 -15.707031 15.1875 -16.34375 C 14.601562 -16.976562 13.828125 -17.296875 12.859375 -17.296875 Z M 12.859375 -17.296875 "/></g></g></g><g fill="#060074" fill-opacity="1"><g transform="translate(200.27169, 267.463581)"><g><path d="M 10.265625 0 L 2.640625 0 L 2.640625 -30.359375 L 10.265625 -30.359375 Z M 10.265625 0 "/></g></g></g><g fill="#060074" fill-opacity="1"><g transform="translate(213.184038, 267.463581)"><g><path d="M 17.046875 0 L 15.59375 -2.921875 L 15.4375 -2.921875 C 14.40625 -1.648438 13.351562 -0.78125 12.28125 -0.3125 C 11.21875 0.15625 9.84375 0.390625 8.15625 0.390625 C 6.070312 0.390625 4.429688 -0.234375 3.234375 -1.484375 C 2.035156 -2.734375 1.4375 -4.488281 1.4375 -6.75 C 1.4375 -9.101562 2.253906 -10.851562 3.890625 -12 C 5.535156 -13.15625 7.910156 -13.804688 11.015625 -13.953125 L 14.703125 -14.0625 L 14.703125 -14.375 C 14.703125 -16.195312 13.804688 -17.109375 12.015625 -17.109375 C 10.398438 -17.109375 8.351562 -16.5625 5.875 -15.46875 L 3.671875 -20.5 C 6.242188 -21.832031 9.492188 -22.5 13.421875 -22.5 C 16.253906 -22.5 18.445312 -21.796875 20 -20.390625 C 21.5625 -18.984375 22.34375 -17.019531 22.34375 -14.5 L 22.34375 0 Z M 11.390625 -5 C 12.316406 -5 13.109375 -5.289062 13.765625 -5.875 C 14.421875 -6.457031 14.75 -7.21875 14.75 -8.15625 L 14.75 -9.875 L 13 -9.796875 C 10.488281 -9.703125 9.234375 -8.773438 9.234375 -7.015625 C 9.234375 -5.671875 9.953125 -5 11.390625 -5 Z M 11.390625 -5 "/></g></g></g><g fill="#060074" fill-opacity="1"><g transform="translate(238.072491, 267.463581)"><g><path d="M 13.453125 -5.640625 C 14.484375 -5.640625 15.710938 -5.894531 17.140625 -6.40625 L 17.140625 -0.84375 C 16.117188 -0.394531 15.140625 -0.078125 14.203125 0.109375 C 13.273438 0.296875 12.1875 0.390625 10.9375 0.390625 C 8.375 0.390625 6.523438 -0.234375 5.390625 -1.484375 C 4.265625 -2.742188 3.703125 -4.675781 3.703125 -7.28125 L 3.703125 -16.390625 L 1.03125 -16.390625 L 1.03125 -19.484375 L 4.421875 -21.890625 L 6.40625 -26.53125 L 11.390625 -26.53125 L 11.390625 -22.109375 L 16.8125 -22.109375 L 16.8125 -16.390625 L 11.390625 -16.390625 L 11.390625 -7.78125 C 11.390625 -6.351562 12.078125 -5.640625 13.453125 -5.640625 Z M 13.453125 -5.640625 "/></g></g></g><g fill="#060074" fill-opacity="1"><g transform="translate(256.446255, 267.463581)"><g><path d="M 23.734375 -11.09375 C 23.734375 -7.476562 22.757812 -4.660156 20.8125 -2.640625 C 18.875 -0.617188 16.15625 0.390625 12.65625 0.390625 C 9.300781 0.390625 6.628906 -0.640625 4.640625 -2.703125 C 2.660156 -4.773438 1.671875 -7.570312 1.671875 -11.09375 C 1.671875 -14.695312 2.644531 -17.5 4.59375 -19.5 C 6.539062 -21.5 9.269531 -22.5 12.78125 -22.5 C 14.945312 -22.5 16.863281 -22.035156 18.53125 -21.109375 C 20.195312 -20.179688 21.476562 -18.851562 22.375 -17.125 C 23.28125 -15.40625 23.734375 -13.394531 23.734375 -11.09375 Z M 9.421875 -11.09375 C 9.421875 -9.195312 9.671875 -7.75 10.171875 -6.75 C 10.679688 -5.757812 11.535156 -5.265625 12.734375 -5.265625 C 13.921875 -5.265625 14.757812 -5.757812 15.25 -6.75 C 15.738281 -7.75 15.984375 -9.195312 15.984375 -11.09375 C 15.984375 -12.976562 15.734375 -14.398438 15.234375 -15.359375 C 14.742188 -16.328125 13.898438 -16.8125 12.703125 -16.8125 C 11.523438 -16.8125 10.679688 -16.332031 10.171875 -15.375 C 9.671875 -14.425781 9.421875 -13 9.421875 -11.09375 Z M 8.125 -24.203125 L 8.125 -24.78125 C 10.125 -26.925781 11.394531 -28.3125 11.9375 -28.9375 C 12.476562 -29.5625 12.921875 -30.117188 13.265625 -30.609375 L 21.625 -30.609375 L 21.625 -30.203125 C 20.582031 -29.367188 19.148438 -28.304688 17.328125 -27.015625 C 15.503906 -25.734375 14.125 -24.796875 13.1875 -24.203125 Z M 8.125 -24.203125 "/></g></g></g><g fill="#060074" fill-opacity="1"><g transform="translate(281.900359, 267.463581)"><g><path d="M 15.984375 -22.5 C 16.640625 -22.5 17.269531 -22.445312 17.875 -22.34375 L 18.296875 -22.265625 L 17.609375 -15.0625 C 16.984375 -15.21875 16.117188 -15.296875 15.015625 -15.296875 C 13.359375 -15.296875 12.148438 -14.914062 11.390625 -14.15625 C 10.640625 -13.394531 10.265625 -12.296875 10.265625 -10.859375 L 10.265625 0 L 2.640625 0 L 2.640625 -22.109375 L 8.3125 -22.109375 L 9.5 -18.578125 L 9.875 -18.578125 C 10.507812 -19.742188 11.394531 -20.6875 12.53125 -21.40625 C 13.664062 -22.132812 14.816406 -22.5 15.984375 -22.5 Z M 15.984375 -22.5 "/></g></g></g><g fill="#060074" fill-opacity="1"><g transform="translate(300.644722, 267.463581)"><g><path d="M 10.296875 0 L 2.671875 0 L 2.671875 -22.109375 L 10.296875 -22.109375 Z M 2.484375 -27.609375 C 2.484375 -28.753906 2.800781 -29.601562 3.4375 -30.15625 C 4.070312 -30.71875 5.097656 -31 6.515625 -31 C 7.929688 -31 8.960938 -30.710938 9.609375 -30.140625 C 10.265625 -29.566406 10.59375 -28.722656 10.59375 -27.609375 C 10.59375 -25.367188 9.234375 -24.25 6.515625 -24.25 C 3.828125 -24.25 2.484375 -25.367188 2.484375 -27.609375 Z M 2.484375 -27.609375 "/></g></g></g><g fill="#060074" fill-opacity="1"><g transform="translate(313.635084, 267.463581)"><g><path d="M 23.734375 -11.09375 C 23.734375 -7.476562 22.757812 -4.660156 20.8125 -2.640625 C 18.875 -0.617188 16.15625 0.390625 12.65625 0.390625 C 9.300781 0.390625 6.628906 -0.640625 4.640625 -2.703125 C 2.660156 -4.773438 1.671875 -7.570312 1.671875 -11.09375 C 1.671875 -14.695312 2.644531 -17.5 4.59375 -19.5 C 6.539062 -21.5 9.269531 -22.5 12.78125 -22.5 C 14.945312 -22.5 16.863281 -22.035156 18.53125 -21.109375 C 20.195312 -20.179688 21.476562 -18.851562 22.375 -17.125 C 23.28125 -15.40625 23.734375 -13.394531 23.734375 -11.09375 Z M 9.421875 -11.09375 C 9.421875 -9.195312 9.671875 -7.75 10.171875 -6.75 C 10.679688 -5.757812 11.535156 -5.265625 12.734375 -5.265625 C 13.921875 -5.265625 14.757812 -5.757812 15.25 -6.75 C 15.738281 -7.75 15.984375 -9.195312 15.984375 -11.09375 C 15.984375 -12.976562 15.734375 -14.398438 15.234375 -15.359375 C 14.742188 -16.328125 13.898438 -16.8125 12.703125 -16.8125 C 11.523438 -16.8125 10.679688 -16.332031 10.171875 -15.375 C 9.671875 -14.425781 9.421875 -13 9.421875 -11.09375 Z M 9.421875 -11.09375 "/></g></g></g><g fill="#060074" fill-opacity="1"><g transform="translate(339.089187, 267.463581)"><g><path d="M 19.703125 -6.78125 C 19.703125 -4.414062 18.894531 -2.628906 17.28125 -1.421875 C 15.664062 -0.210938 13.351562 0.390625 10.34375 0.390625 C 8.695312 0.390625 7.269531 0.300781 6.0625 0.125 C 4.851562 -0.0507812 3.617188 -0.375 2.359375 -0.84375 L 2.359375 -6.9375 C 3.546875 -6.425781 4.84375 -6 6.25 -5.65625 C 7.664062 -5.320312 8.925781 -5.15625 10.03125 -5.15625 C 11.675781 -5.15625 12.5 -5.53125 12.5 -6.28125 C 12.5 -6.664062 12.269531 -7.007812 11.8125 -7.3125 C 11.351562 -7.625 10.007812 -8.222656 7.78125 -9.109375 C 5.75 -9.941406 4.332031 -10.882812 3.53125 -11.9375 C 2.726562 -13 2.328125 -14.347656 2.328125 -15.984375 C 2.328125 -18.035156 3.117188 -19.632812 4.703125 -20.78125 C 6.285156 -21.925781 8.53125 -22.5 11.4375 -22.5 C 12.882812 -22.5 14.25 -22.335938 15.53125 -22.015625 C 16.8125 -21.691406 18.144531 -21.226562 19.53125 -20.625 L 17.453125 -15.703125 C 16.441406 -16.160156 15.367188 -16.546875 14.234375 -16.859375 C 13.109375 -17.179688 12.1875 -17.34375 11.46875 -17.34375 C 10.21875 -17.34375 9.59375 -17.035156 9.59375 -16.421875 C 9.59375 -16.046875 9.8125 -15.722656 10.25 -15.453125 C 10.6875 -15.191406 11.945312 -14.648438 14.03125 -13.828125 C 15.570312 -13.191406 16.722656 -12.566406 17.484375 -11.953125 C 18.242188 -11.347656 18.800781 -10.628906 19.15625 -9.796875 C 19.519531 -8.972656 19.703125 -7.96875 19.703125 -6.78125 Z M 19.703125 -6.78125 "/></g></g></g></svg>