<svg xmlns="http://www.w3.org/2000/svg" xmlns:xlink="http://www.w3.org/1999/xlink" width="500" zoomAndPan="magnify" viewBox="0 0 375 374.999991" height="500" preserveAspectRatio="xMidYMid meet" version="1.0"><defs><clipPath id="a0f8a1b8d6"><path d="M 27 0 L 309 0 L 309 297 L 27 297 Z M 27 0 " clip-rule="nonzero"/></clipPath></defs><path fill="#008037" d="M 322.464844 80.683594 C 302.773438 60.988281 270.871094 60.988281 251.191406 80.683594 L 238.699219 93.1875 L 226.214844 80.683594 C 206.53125 60.988281 174.617188 60.988281 154.941406 80.683594 C 141.207031 94.433594 137.085938 114.128906 142.519531 131.476562 C 141.527344 118.375 146.257812 104.933594 156.785156 95.113281 C 167.664062 84.964844 183.203125 82.175781 197.515625 84.703125 C 212.828125 87.414062 223.792969 95.625 234.601562 106.230469 C 234.816406 106.4375 238.277344 109.84375 238.28125 109.84375 C 248.851562 99.476562 258.828125 86.308594 274.242188 83.539062 C 297.386719 79.378906 324.5625 100.757812 318.082031 125.585938 C 315.140625 136.839844 306.648438 142.035156 298.140625 148.691406 C 292.84375 152.839844 287.488281 156.921875 282.242188 161.136719 C 270.816406 170.3125 259.558594 180.105469 250.683594 191.855469 C 245.890625 198.199219 241.773438 205.195312 239.457031 212.84375 C 238.34375 216.503906 237.660156 220.292969 237.5 224.117188 C 237.339844 228.109375 238.753906 232.011719 238.699219 235.867188 C 238.980469 215.996094 255.886719 199.175781 269.886719 187.117188 C 276.605469 181.328125 283.523438 175.832031 290.890625 170.894531 C 298.875 165.539062 307.601562 161.40625 315.34375 155.65625 C 315.492188 155.542969 315.644531 155.429688 315.796875 155.316406 C 326.949219 146.902344 335.804688 135.277344 337.023438 120.988281 C 338.28125 106.324219 332.878906 91.109375 322.464844 80.683594 " fill-opacity="1" fill-rule="nonzero"/><path fill="#008037" d="M 33.148438 132.8125 C 33.148438 141.914062 25.777344 149.296875 16.683594 149.296875 C 7.585938 149.296875 0.214844 141.914062 0.214844 132.8125 C 0.214844 123.707031 7.585938 116.328125 16.683594 116.328125 C 25.777344 116.328125 33.148438 123.707031 33.148438 132.8125 " fill-opacity="1" fill-rule="nonzero"/><path fill="#008037" d="M 322.464844 80.683594 C 302.773438 60.988281 270.871094 60.988281 251.191406 80.683594 L 238.699219 93.1875 L 226.214844 80.683594 C 206.53125 60.988281 174.617188 60.988281 154.941406 80.683594 C 141.207031 94.433594 137.085938 114.128906 142.519531 131.476562 C 141.527344 118.375 146.257812 104.933594 156.785156 95.113281 C 167.664062 84.964844 183.203125 82.175781 197.515625 84.703125 C 212.828125 87.414062 223.792969 95.625 234.601562 106.230469 C 234.816406 106.4375 238.277344 109.84375 238.28125 109.84375 C 248.851562 99.476562 258.828125 86.308594 274.242188 83.539062 C 297.386719 79.378906 324.5625 100.757812 318.082031 125.585938 C 315.140625 136.839844 306.648438 142.035156 298.140625 148.691406 C 292.84375 152.839844 287.488281 156.921875 282.242188 161.136719 C 270.816406 170.3125 259.558594 180.105469 250.683594 191.855469 C 245.890625 198.199219 241.773438 205.195312 239.457031 212.84375 C 238.34375 216.503906 237.660156 220.292969 237.5 224.117188 C 237.339844 228.109375 238.753906 232.011719 238.699219 235.867188 C 238.980469 215.996094 255.886719 199.175781 269.886719 187.117188 C 276.605469 181.328125 283.523438 175.832031 290.890625 170.894531 C 298.875 165.539062 307.601562 161.40625 315.34375 155.65625 C 315.492188 155.542969 315.644531 155.429688 315.796875 155.316406 C 326.949219 146.902344 335.804688 135.277344 337.023438 120.988281 C 338.28125 106.324219 332.878906 91.109375 322.464844 80.683594 " fill-opacity="1" fill-rule="nonzero"/><g clip-path="url(#a0f8a1b8d6)"><path fill="#008037" d="M 298.773438 142.980469 C 302.371094 140.238281 305.703125 137.6875 308.410156 134.714844 L 155.054688 134.714844 L 146.609375 210.777344 L 120.132812 0.0117188 L 107.050781 127.386719 L 98.617188 89.878906 L 85.183594 127.632812 L 27.53125 127.632812 L 27.53125 137.773438 L 92.332031 137.773438 L 96.417969 126.292969 L 110.785156 190.21875 L 121.140625 89.363281 L 147.230469 297.019531 L 164.121094 144.859375 L 296.328125 144.859375 C 297.144531 144.226562 297.960938 143.597656 298.773438 142.980469 " fill-opacity="1" fill-rule="nonzero"/></g><path fill="#008037" d="M 337.820312 134.714844 C 336.261719 138.425781 334.28125 141.808594 332.054688 144.859375 L 374.816406 144.859375 L 374.816406 134.714844 L 337.820312 134.714844 " fill-opacity="1" fill-rule="nonzero"/></svg>